<?xml version="1.0" encoding="utf-8"?>
<!-- Generator: Adobe Illustrator 19.1.0, SVG Export Plug-In . SVG Version: 6.00 Build 0)  -->
<svg version="1.1" id="Layer_1" xmlns="http://www.w3.org/2000/svg" xmlns:xlink="http://www.w3.org/1999/xlink" x="0px" y="0px"
	 viewBox="0 0 754.5 301.2" style="enable-background:new 0 0 754.5 301.2;" xml:space="preserve">
<path d="M151.9,150.3c-0.4-1.5-1-2.5-1.8-3.4l-42.1-46.1c-1-1.1-2.1-1.6-3.3-2.2c-1.5-0.8-3.1-0.8-4.7-0.8H19.7
	c-6.2,0-11.9,4.8-11.9,11.5v168.4c0,6.7,5.7,13,11.9,13h122.2c6.2,0,10.7-6.3,10.7-13V155C152.5,153.2,152.3,151.9,151.9,150.3z
	 M104.8,121.2l29.1,31.9h-29.1V121.2z M23.9,274.7V113.9h64.8v41.1c0,7.4,6.7,14.2,14.1,14.2h33.6v105.5H23.9z"/>
<path d="M35.6,182.3h10l9.3,25.3l3.4,9.7h0.3l3.4-9.7l9-25.3h10v51.3h-8.6v-23.5c0-4.8,0.7-11.6,1.2-16.3h-0.3l-4.2,11.7l-8.9,23.3
	h-4.2l-8.9-23.3l-4.1-11.7h-0.3c0.4,4.7,1.1,11.5,1.1,16.3v23.5h-8.3V182.3z"/>
<path d="M107.1,194.2c4.4,0,7.1,1.6,10.1,4.2l-0.3-6.2v-14h9v55.4h-7.5l-0.6-4.2h-0.3c-2.8,2.8-6.8,5.1-10.9,5.1
	c-9.7,0-15.9-7.5-15.9-20.2C90.8,201.9,98.7,194.2,107.1,194.2z M108.8,227.1c3,0,5.5-1.3,8.1-4.3v-18c-2.7-2.4-5.3-3.2-7.9-3.2
	c-4.9,0-8.9,4.6-8.9,12.7C100.1,222.7,103.3,227.1,108.8,227.1z"/>
<path d="M744.9,150.3c-0.4-1.5-1-2.5-1.8-3.4l-42.1-46.1c-1-1.1-2.1-1.6-3.3-2.2c-1.5-0.8-3.1-0.8-4.7-0.8h-80.3
	c-6.2,0-11.9,4.8-11.9,11.5v168.4c0,6.7,5.7,13,11.9,13h122.2c6.2,0,10.7-6.3,10.7-13V155C745.5,153.2,745.3,151.9,744.9,150.3z
	 M697.8,121.2l29.1,31.9h-29.1V121.2z M616.9,274.7V113.9h64.8v41.1c0,7.4,6.7,14.2,14.1,14.2h33.6v105.5H616.9z"/>
<path d="M628.6,182.3h10l9.3,25.3l3.4,9.7h0.3l3.4-9.7l9-25.3h10v51.3h-8.6v-23.5c0-4.8,0.7-11.6,1.2-16.3h-0.3l-4.2,11.7l-8.9,23.3
	h-4.2l-8.9-23.3l-4.1-11.7h-0.3c0.4,4.7,1.1,11.5,1.1,16.3v23.5h-8.3V182.3z"/>
<path d="M700.1,194.2c4.4,0,7.1,1.6,10.1,4.2l-0.3-6.2v-14h9v55.4h-7.5l-0.6-4.2h-0.3c-2.8,2.8-6.8,5.1-10.9,5.1
	c-9.7,0-15.9-7.5-15.9-20.2C683.8,201.9,691.7,194.2,700.1,194.2z M701.8,227.1c3,0,5.5-1.3,8.1-4.3v-18c-2.7-2.4-5.3-3.2-7.9-3.2
	c-4.9,0-8.9,4.6-8.9,12.7C693.1,222.7,696.3,227.1,701.8,227.1z"/>
<path d="M166.6,209.4H162v-4.6h5.1l1-7.7h-4.9v-4.6h5.5l1.3-10.4h4.1l-1.3,10.4h7l1.4-10.4h4.1l-1.3,10.4h4.8v4.6h-5.3l-1,7.7h5.1
	v4.6H182l-1.4,11.7h-4.2l1.4-11.7h-7l-1.4,11.7h-4.2L166.6,209.4z M178.4,204.9l1-7.7h-7.1l-1,7.7H178.4z"/>
<path d="M197.4,209.4h-4.6v-4.6h5.1l1-7.7H194v-4.6h5.5l1.3-10.4h4.1l-1.3,10.4h7l1.4-10.4h4.1l-1.3,10.4h4.8v4.6h-5.3l-1,7.7h5.1
	v4.6h-5.6l-1.4,11.7h-4.2l1.4-11.7h-7l-1.4,11.7h-4.2L197.4,209.4z M209.1,204.9l1-7.7H203l-1,7.7H209.1z"/>
<path d="M228.2,209.4h-4.6v-4.6h5.1l1-7.7h-4.9v-4.6h5.5l1.3-10.4h4.1l-1.3,10.4h7l1.4-10.4h4.1l-1.3,10.4h4.8v4.6h-5.3l-1,7.7h5.1
	v4.6h-5.6l-1.4,11.7H238l1.4-11.7h-7l-1.4,11.7h-4.2L228.2,209.4z M239.9,204.9l1-7.7h-7.1l-1,7.7H239.9z"/>
<path d="M258.9,209.4h-4.6v-4.6h5.1l1-7.7h-4.9v-4.6h5.5l1.3-10.4h4.1l-1.3,10.4h7l1.4-10.4h4.1l-1.3,10.4h4.8v4.6h-5.3l-1,7.7h5.1
	v4.6h-5.6l-1.4,11.7h-4.2l1.4-11.7h-7l-1.4,11.7h-4.2L258.9,209.4z M270.7,204.9l1-7.7h-7.1l-1,7.7H270.7z"/>
<path d="M289.7,209.4h-4.6v-4.6h5.1l1-7.7h-4.9v-4.6h5.5l1.3-10.4h4.1l-1.3,10.4h7l1.4-10.4h4.1l-1.3,10.4h4.8v4.6h-5.3l-1,7.7h5.1
	v4.6h-5.6l-1.4,11.7h-4.2l1.4-11.7h-7l-1.4,11.7h-4.2L289.7,209.4z M301.5,204.9l1-7.7h-7.1l-1,7.7H301.5z"/>
<path d="M320.5,209.4h-4.6v-4.6h5.1l1-7.7h-4.9v-4.6h5.5l1.3-10.4h4.1l-1.3,10.4h7l1.4-10.4h4.1l-1.3,10.4h4.8v4.6h-5.3l-1,7.7h5.1
	v4.6h-5.6l-1.4,11.7h-4.2l1.4-11.7h-7l-1.4,11.7h-4.2L320.5,209.4z M332.3,204.9l1-7.7h-7.1l-1,7.7H332.3z"/>
<path d="M351.3,209.4h-4.6v-4.6h5.1l1-7.7h-4.9v-4.6h5.5l1.3-10.4h4.1l-1.3,10.4h7l1.4-10.4h4.1l-1.3,10.4h4.8v4.6h-5.3l-1,7.7h5.1
	v4.6h-5.6l-1.4,11.7h-4.2l1.4-11.7h-7l-1.4,11.7h-4.2L351.3,209.4z M363,204.9l1-7.7h-7.1l-1,7.7H363z"/>
<path d="M382.1,209.4h-4.6v-4.6h5.1l1-7.7h-4.9v-4.6h5.5l1.3-10.4h4.1l-1.3,10.4h7l1.4-10.4h4.1l-1.3,10.4h4.8v4.6H399l-1,7.7h5.1
	v4.6h-5.6l-1.4,11.7h-4.2l1.4-11.7h-7l-1.4,11.7h-4.2L382.1,209.4z M393.8,204.9l1-7.7h-7.1l-1,7.7H393.8z"/>
<path d="M412.8,209.4h-4.6v-4.6h5.1l1-7.7h-4.9v-4.6h5.5l1.3-10.4h4.1l-1.3,10.4h7l1.4-10.4h4.1l-1.3,10.4h4.8v4.6h-5.3l-1,7.7h5.1
	v4.6h-5.6l-1.4,11.7h-4.2l1.4-11.7h-7l-1.4,11.7h-4.2L412.8,209.4z M424.6,204.9l1-7.7h-7.1l-1,7.7H424.6z"/>
<path d="M443.6,209.4H439v-4.6h5.1l1-7.7h-4.9v-4.6h5.5l1.3-10.4h4.1l-1.3,10.4h7l1.4-10.4h4.1l-1.3,10.4h4.8v4.6h-5.3l-1,7.7h5.1
	v4.6H459l-1.4,11.7h-4.2l1.4-11.7h-7l-1.4,11.7h-4.2L443.6,209.4z M455.4,204.9l1-7.7h-7.1l-1,7.7H455.4z"/>
<path d="M474.4,209.4h-4.6v-4.6h5.1l1-7.7H471v-4.6h5.5l1.3-10.4h4.1l-1.3,10.4h7l1.4-10.4h4.1l-1.3,10.4h4.8v4.6h-5.3l-1,7.7h5.1
	v4.6h-5.6l-1.4,11.7h-4.2l1.4-11.7h-7l-1.4,11.7H473L474.4,209.4z M486.2,204.9l1-7.7H480l-1,7.7H486.2z"/>
<path d="M505.2,209.4h-4.6v-4.6h5.1l1-7.7h-4.9v-4.6h5.5l1.3-10.4h4.1l-1.3,10.4h7l1.4-10.4h4.1l-1.3,10.4h4.8v4.6h-5.3l-1,7.7h5.1
	v4.6h-5.6l-1.4,11.7H515l1.4-11.7h-7l-1.4,11.7h-4.2L505.2,209.4z M516.9,204.9l1-7.7h-7.1l-1,7.7H516.9z"/>
<path d="M536,209.4h-4.6v-4.6h5.1l1-7.7h-4.9v-4.6h5.5l1.3-10.4h4.1l-1.3,10.4h7l1.4-10.4h4.1l-1.3,10.4h4.8v4.6h-5.3l-1,7.7h5.1
	v4.6h-5.6l-1.4,11.7h-4.2l1.4-11.7h-7l-1.4,11.7h-4.2L536,209.4z M547.7,204.9l1-7.7h-7.1l-1,7.7H547.7z"/>
<path d="M566.7,209.4h-4.6v-4.6h5.1l1-7.7h-4.9v-4.6h5.5l1.3-10.4h4.1l-1.3,10.4h7l1.4-10.4h4.1l-1.3,10.4h4.8v4.6h-5.3l-1,7.7h5.1
	v4.6h-5.6l-1.4,11.7h-4.2l1.4-11.7h-7l-1.4,11.7h-4.2L566.7,209.4z M578.5,204.9l1-7.7h-7.1l-1,7.7H578.5z"/>
<path d="M229.2,38.1h-4.6v-4.6h5.1l1-7.7h-4.9v-4.6h5.5l1.3-10.4h4.1l-1.3,10.4h7l1.4-10.4h4.1l-1.3,10.4h4.8v4.6h-5.3l-1,7.7h5.1
	v4.6h-5.6l-1.4,11.7h-4.2l1.4-11.7h-7L232,49.8h-4.2L229.2,38.1z M241,33.5l1-7.7h-7.1l-1,7.7H241z"/>
<path d="M229.2,81.3h-4.6v-4.6h5.1l1-7.7h-4.9v-4.6h5.5l1.3-10.4h4.1l-1.3,10.4h7l1.4-10.4h4.1l-1.3,10.4h4.8V69h-5.3l-1,7.7h5.1
	v4.6h-5.6L243.3,93h-4.2l1.4-11.7h-7L232,93h-4.2L229.2,81.3z M241,76.7l1-7.7h-7.1l-1,7.7H241z"/>
<path d="M229.2,124.5h-4.6v-4.6h5.1l1-7.7h-4.9v-4.6h5.5l1.3-10.4h4.1l-1.3,10.4h7l1.4-10.4h4.1l-1.3,10.4h4.8v4.6h-5.3l-1,7.7h5.1
	v4.6h-5.6l-1.4,11.7h-4.2l1.4-11.7h-7l-1.4,11.7h-4.2L229.2,124.5z M241,119.9l1-7.7h-7.1l-1,7.7H241z"/>
<path d="M229.2,167.7h-4.6v-4.6h5.1l1-7.7h-4.9v-4.6h5.5l1.3-10.4h4.1l-1.3,10.4h7l1.4-10.4h4.1l-1.3,10.4h4.8v4.6h-5.3l-1,7.7h5.1
	v4.6h-5.6l-1.4,11.7h-4.2l1.4-11.7h-7l-1.4,11.7h-4.2L229.2,167.7z M241,163.1l1-7.7h-7.1l-1,7.7H241z"/>
<path d="M105.7,38.4h-4.6v-4.6h5.1l1-7.7h-4.9v-4.6h5.5l1.3-10.4h4.1l-1.3,10.4h7l1.4-10.4h4.1l-1.3,10.4h4.8v4.6h-5.3l-1,7.7h5.1
	v4.6h-5.6l-1.4,11.7h-4.2l1.4-11.7h-7l-1.4,11.7h-4.2L105.7,38.4z M117.5,33.9l1-7.7h-7.1l-1,7.7H117.5z"/>
<path d="M136.5,38.4h-4.6v-4.6h5.1l1-7.7h-4.9v-4.6h5.5l1.3-10.4h4.1l-1.3,10.4h7l1.4-10.4h4.1l-1.3,10.4h4.8v4.6h-5.3l-1,7.7h5.1
	v4.6h-5.6l-1.4,11.7h-4.2l1.4-11.7h-7l-1.4,11.7H135L136.5,38.4z M148.2,33.9l1-7.7h-7.1l-1,7.7H148.2z"/>
<path d="M167.3,38.4h-4.6v-4.6h5.1l1-7.7h-4.9v-4.6h5.5l1.3-10.4h4.1l-1.3,10.4h7l1.4-10.4h4.1l-1.3,10.4h4.8v4.6h-5.3l-1,7.7h5.1
	v4.6h-5.6l-1.4,11.7h-4.2l1.4-11.7h-7L170,50.1h-4.2L167.3,38.4z M179,33.9l1-7.7h-7.1l-1,7.7H179z"/>
<path d="M198,38.4h-4.6v-4.6h5.1l1-7.7h-4.9v-4.6h5.5l1.3-10.4h4.1l-1.3,10.4h7l1.4-10.4h4.1l-1.3,10.4h4.8v4.6H215l-1,7.7h5.1v4.6
	h-5.6l-1.4,11.7h-4.2l1.4-11.7h-7l-1.4,11.7h-4.2L198,38.4z M209.8,33.9l1-7.7h-7.1l-1,7.7H209.8z"/>
<path d="M75.5,38.4h-4.6v-4.6H76l1-7.7h-4.9v-4.6h5.5l1.3-10.4H83l-1.3,10.4h7l1.4-10.4h4.1L93,21.6h4.8v4.6h-5.3l-1,7.7h5.1v4.6
	h-5.6l-1.4,11.7h-4.2l1.4-11.7h-7l-1.4,11.7h-4.2L75.5,38.4z M87.3,33.9l1-7.7h-7.1l-1,7.7H87.3z"/>
<path d="M75.5,81.6h-4.6v-4.6H76l1-7.7h-4.9v-4.6h5.5l1.3-10.4H83l-1.3,10.4h7l1.4-10.4h4.1L93,64.8h4.8v4.6h-5.3l-1,7.7h5.1v4.6
	h-5.6l-1.4,11.7h-4.2l1.4-11.7h-7l-1.4,11.7h-4.2L75.5,81.6z M87.3,77.1l1-7.7h-7.1l-1,7.7H87.3z"/>
</svg>
