<?xml version="1.0" encoding="utf-8"?>
<!-- Generator: Adobe Illustrator 19.1.0, SVG Export Plug-In . SVG Version: 6.00 Build 0)  -->
<svg version="1.1" id="Layer_1" xmlns="http://www.w3.org/2000/svg" xmlns:xlink="http://www.w3.org/1999/xlink" x="0px" y="0px"
	 viewBox="0 0 754.5 150.6" style="enable-background:new 0 0 754.5 150.6;" xml:space="preserve">
<style type="text/css">
	.st0{fill:#111111;}
	.st1{fill:#330505;}
</style>
<path class="st0" d="M68,81.5c-0.1-0.6-0.4-1-0.7-1.4L49.7,60.8c-0.4-0.4-0.9-0.7-1.4-0.9c-0.6-0.3-1.3-0.3-2-0.3H12.8
	c-2.6,0-5,2-5,4.8v70.3c0,2.8,2.4,5.4,5,5.4h51c2.6,0,4.4-2.6,4.4-5.4V83.5C68.3,82.7,68.2,82.2,68,81.5z M48.3,69.3l12.2,13.3H48.3
	V69.3z M14.5,133.4V66.3h27.1v17.1c0,3.1,2.8,5.9,5.9,5.9h14v44.1H14.5z"/>
<path class="st0" d="M19.4,94.9h4.2l3.9,10.6l1.4,4.1H29l1.4-4.1l3.8-10.6h4.2v21.4h-3.6v-9.8c0-2,0.3-4.9,0.5-6.8h-0.1l-1.7,4.9
	l-3.7,9.7H28l-3.7-9.7l-1.7-4.9h-0.1c0.2,2,0.5,4.8,0.5,6.8v9.8h-3.5V94.9z"/>
<path class="st0" d="M49.3,99.8c1.8,0,3,0.7,4.2,1.8L53.4,99v-5.8h3.8v23.1H54l-0.3-1.7h-0.1c-1.2,1.2-2.8,2.1-4.6,2.1
	c-4,0-6.6-3.1-6.6-8.4C42.5,103,45.8,99.8,49.3,99.8z M50,113.6c1.2,0,2.3-0.6,3.4-1.8v-7.5c-1.1-1-2.2-1.3-3.3-1.3
	c-2.1,0-3.7,1.9-3.7,5.3C46.4,111.7,47.7,113.6,50,113.6z"/>
<path class="st0" d="M748.5,81.5c-0.1-0.6-0.4-1-0.7-1.4l-17.6-19.2c-0.4-0.4-0.9-0.7-1.4-0.9c-0.6-0.3-1.3-0.3-2-0.3h-33.6
	c-2.6,0-5,2-5,4.8v70.3c0,2.8,2.4,5.4,5,5.4h51c2.6,0,4.4-2.6,4.4-5.4V83.5C748.7,82.7,748.7,82.2,748.5,81.5z M728.8,69.3L741,82.7
	h-12.2V69.3z M695,133.4V66.3h27.1v17.1c0,3.1,2.8,5.9,5.9,5.9h14v44.1H695z"/>
<path class="st0" d="M699.9,94.9h4.2l3.9,10.6l1.4,4.1h0.1l1.4-4.1l3.8-10.6h4.2v21.4h-3.6v-9.8c0-2,0.3-4.9,0.5-6.8h-0.1l-1.7,4.9
	l-3.7,9.7h-1.7l-3.7-9.7l-1.7-4.9h-0.1c0.2,2,0.5,4.8,0.5,6.8v9.8h-3.5V94.9z"/>
<path class="st0" d="M729.8,99.8c1.8,0,3,0.7,4.2,1.8l-0.1-2.6v-5.8h3.8v23.1h-3.1l-0.3-1.7h-0.1c-1.2,1.2-2.8,2.1-4.6,2.1
	c-4,0-6.6-3.1-6.6-8.4C723,103,726.3,99.8,729.8,99.8z M730.5,113.6c1.2,0,2.3-0.6,3.4-1.8v-7.5c-1.1-1-2.2-1.3-3.3-1.3
	c-2.1,0-3.7,1.9-3.7,5.3C726.9,111.7,728.2,113.6,730.5,113.6z"/>
<path class="st0" d="M74.1,106.2h-1.9v-1.9h2.1l0.4-3.2h-2v-1.9H75l0.6-4.4h1.7l-0.5,4.4h2.9l0.6-4.4h1.7l-0.5,4.4h2v1.9h-2.2
	l-0.4,3.2h2.1v1.9h-2.4l-0.6,4.9h-1.8l0.6-4.9h-2.9l-0.6,4.9h-1.8L74.1,106.2z M79,104.3l0.4-3.2h-3l-0.4,3.2H79z"/>
<path class="st0" d="M87,106.2h-1.9v-1.9h2.1l0.4-3.2h-2v-1.9h2.3l0.6-4.4h1.7l-0.5,4.4h2.9l0.6-4.4h1.7l-0.5,4.4h2v1.9H94l-0.4,3.2
	h2.1v1.9h-2.4l-0.6,4.9h-1.8l0.6-4.9h-2.9l-0.6,4.9h-1.8L87,106.2z M91.9,104.3l0.4-3.2h-3l-0.4,3.2H91.9z"/>
<path class="st0" d="M99.8,106.2h-1.9v-1.9h2.1l0.4-3.2h-2v-1.9h2.3l0.6-4.4h1.7l-0.5,4.4h2.9l0.6-4.4h1.7l-0.5,4.4h2v1.9h-2.2
	l-0.4,3.2h2.1v1.9h-2.4l-0.6,4.9h-1.8l0.6-4.9h-2.9l-0.6,4.9h-1.8L99.8,106.2z M104.7,104.3l0.4-3.2h-3l-0.4,3.2H104.7z"/>
<path class="st0" d="M112.7,106.2h-1.9v-1.9h2.1l0.4-3.2h-2v-1.9h2.3l0.6-4.4h1.7l-0.5,4.4h2.9l0.6-4.4h1.7l-0.5,4.4h2v1.9h-2.2
	l-0.4,3.2h2.1v1.9h-2.4l-0.6,4.9h-1.8l0.6-4.9h-2.9l-0.6,4.9h-1.8L112.7,106.2z M117.6,104.3l0.4-3.2h-3l-0.4,3.2H117.6z"/>
<path class="st0" d="M125.5,106.2h-1.9v-1.9h2.1l0.4-3.2h-2v-1.9h2.3l0.6-4.4h1.7l-0.5,4.4h2.9l0.6-4.4h1.7l-0.5,4.4h2v1.9h-2.2
	l-0.4,3.2h2.1v1.9H132l-0.6,4.9h-1.8l0.6-4.9h-2.9l-0.6,4.9h-1.8L125.5,106.2z M130.5,104.3l0.4-3.2h-3l-0.4,3.2H130.5z"/>
<path class="st0" d="M138.4,106.2h-1.9v-1.9h2.1l0.4-3.2h-2v-1.9h2.3l0.6-4.4h1.7l-0.5,4.4h2.9l0.6-4.4h1.7l-0.5,4.4h2v1.9h-2.2
	l-0.4,3.2h2.1v1.9h-2.4l-0.6,4.9h-1.8l0.6-4.9h-2.9l-0.6,4.9h-1.8L138.4,106.2z M143.3,104.3l0.4-3.2h-3l-0.4,3.2H143.3z"/>
<path class="st0" d="M151.2,106.2h-1.9v-1.9h2.1l0.4-3.2h-2v-1.9h2.3l0.6-4.4h1.7l-0.5,4.4h2.9l0.6-4.4h1.7l-0.5,4.4h2v1.9h-2.2
	l-0.4,3.2h2.1v1.9h-2.4l-0.6,4.9h-1.8l0.6-4.9H153l-0.6,4.9h-1.8L151.2,106.2z M156.2,104.3l0.4-3.2h-3l-0.4,3.2H156.2z"/>
<path class="st0" d="M164.1,106.2h-1.9v-1.9h2.1l0.4-3.2h-2v-1.9h2.3l0.6-4.4h1.7l-0.5,4.4h2.9l0.6-4.4h1.7l-0.5,4.4h2v1.9h-2.2
	l-0.4,3.2h2.1v1.9h-2.4l-0.6,4.9h-1.8l0.6-4.9h-2.9l-0.6,4.9h-1.8L164.1,106.2z M169,104.3l0.4-3.2h-3l-0.4,3.2H169z"/>
<path class="st0" d="M177,106.2H175v-1.9h2.1l0.4-3.2h-2v-1.9h2.3l0.6-4.4h1.7l-0.5,4.4h2.9l0.6-4.4h1.7l-0.5,4.4h2v1.9H184
	l-0.4,3.2h2.1v1.9h-2.4l-0.6,4.9h-1.8l0.6-4.9h-2.9l-0.6,4.9h-1.8L177,106.2z M181.9,104.3l0.4-3.2h-3l-0.4,3.2H181.9z"/>
<path class="st0" d="M189.8,106.2h-1.9v-1.9h2.1l0.4-3.2h-2v-1.9h2.3l0.6-4.4h1.7l-0.5,4.4h2.9l0.6-4.4h1.7l-0.5,4.4h2v1.9h-2.2
	l-0.4,3.2h2.1v1.9h-2.4l-0.6,4.9h-1.8l0.6-4.9h-2.9l-0.6,4.9h-1.8L189.8,106.2z M194.7,104.3l0.4-3.2h-3l-0.4,3.2H194.7z"/>
<path class="st0" d="M202.7,106.2h-1.9v-1.9h2.1l0.4-3.2h-2v-1.9h2.3l0.6-4.4h1.7l-0.5,4.4h2.9l0.6-4.4h1.7l-0.5,4.4h2v1.9h-2.2
	l-0.4,3.2h2.1v1.9h-2.4l-0.6,4.9h-1.8l0.6-4.9h-2.9l-0.6,4.9h-1.8L202.7,106.2z M207.6,104.3l0.4-3.2h-3l-0.4,3.2H207.6z"/>
<path class="st0" d="M215.5,106.2h-1.9v-1.9h2.1l0.4-3.2h-2v-1.9h2.3l0.6-4.4h1.7l-0.5,4.4h2.9l0.6-4.4h1.7l-0.5,4.4h2v1.9h-2.2
	l-0.4,3.2h2.1v1.9H222l-0.6,4.9h-1.8l0.6-4.9h-2.9l-0.6,4.9h-1.8L215.5,106.2z M220.4,104.3l0.4-3.2h-3l-0.4,3.2H220.4z"/>
<path class="st0" d="M228.4,106.2h-1.9v-1.9h2.1l0.4-3.2h-2v-1.9h2.3l0.6-4.4h1.7l-0.5,4.4h2.9l0.6-4.4h1.7l-0.5,4.4h2v1.9h-2.2
	l-0.4,3.2h2.1v1.9h-2.4l-0.6,4.9h-1.8l0.6-4.9h-2.9l-0.6,4.9h-1.8L228.4,106.2z M233.3,104.3l0.4-3.2h-3l-0.4,3.2H233.3z"/>
<path class="st0" d="M241.2,106.2h-1.9v-1.9h2.1l0.4-3.2h-2v-1.9h2.3l0.6-4.4h1.7l-0.5,4.4h2.9l0.6-4.4h1.7l-0.5,4.4h2v1.9h-2.2
	l-0.4,3.2h2.1v1.9h-2.4l-0.6,4.9h-1.8l0.6-4.9H243l-0.6,4.9h-1.8L241.2,106.2z M246.1,104.3l0.4-3.2h-3l-0.4,3.2H246.1z"/>
<path class="st0" d="M254.1,106.2h-1.9v-1.9h2.1l0.4-3.2h-2v-1.9h2.3l0.6-4.4h1.7l-0.5,4.4h2.9l0.6-4.4h1.7l-0.5,4.4h2v1.9h-2.2
	l-0.4,3.2h2.1v1.9h-2.4l-0.6,4.9h-1.8l0.6-4.9h-2.9l-0.6,4.9h-1.8L254.1,106.2z M259,104.3l0.4-3.2h-3l-0.4,3.2H259z"/>
<path class="st0" d="M267,106.2H265v-1.9h2.1l0.4-3.2h-2v-1.9h2.3l0.6-4.4h1.7l-0.5,4.4h2.9l0.6-4.4h1.7l-0.5,4.4h2v1.9H274
	l-0.4,3.2h2.1v1.9h-2.4l-0.6,4.9h-1.8l0.6-4.9h-2.9l-0.6,4.9h-1.8L267,106.2z M271.9,104.3l0.4-3.2h-3l-0.4,3.2H271.9z"/>
<path class="st0" d="M279.8,106.2h-1.9v-1.9h2.1l0.4-3.2h-2v-1.9h2.3l0.6-4.4h1.7l-0.5,4.4h2.9l0.6-4.4h1.7l-0.5,4.4h2v1.9h-2.2
	l-0.4,3.2h2.1v1.9h-2.4l-0.6,4.9h-1.8l0.6-4.9h-2.9l-0.6,4.9h-1.8L279.8,106.2z M284.7,104.3l0.4-3.2h-3l-0.4,3.2H284.7z"/>
<path class="st0" d="M292.7,106.2h-1.9v-1.9h2.1l0.4-3.2h-2v-1.9h2.3l0.6-4.4h1.7l-0.5,4.4h2.9l0.6-4.4h1.7l-0.5,4.4h2v1.9h-2.2
	l-0.4,3.2h2.1v1.9h-2.4l-0.6,4.9h-1.8l0.6-4.9h-2.9l-0.6,4.9h-1.8L292.7,106.2z M297.6,104.3l0.4-3.2h-3l-0.4,3.2H297.6z"/>
<path class="st0" d="M305.5,106.2h-1.9v-1.9h2.1l0.4-3.2h-2v-1.9h2.3l0.6-4.4h1.7l-0.5,4.4h2.9l0.6-4.4h1.7l-0.5,4.4h2v1.9h-2.2
	l-0.4,3.2h2.1v1.9H312l-0.6,4.9h-1.8l0.6-4.9h-2.9l-0.6,4.9h-1.8L305.5,106.2z M310.4,104.3l0.4-3.2h-3l-0.4,3.2H310.4z"/>
<path class="st0" d="M318.4,106.2h-1.9v-1.9h2.1l0.4-3.2h-2v-1.9h2.3l0.6-4.4h1.7l-0.5,4.4h2.9l0.6-4.4h1.7l-0.5,4.4h2v1.9h-2.2
	l-0.4,3.2h2.1v1.9h-2.4l-0.6,4.9h-1.8l0.6-4.9h-2.9l-0.6,4.9h-1.8L318.4,106.2z M323.3,104.3l0.4-3.2h-3l-0.4,3.2H323.3z"/>
<path class="st0" d="M331.2,106.2h-1.9v-1.9h2.1l0.4-3.2h-2v-1.9h2.3l0.6-4.4h1.7l-0.5,4.4h2.9l0.6-4.4h1.7l-0.5,4.4h2v1.9h-2.2
	l-0.4,3.2h2.1v1.9h-2.4l-0.6,4.9h-1.8l0.6-4.9H333l-0.6,4.9h-1.8L331.2,106.2z M336.2,104.3l0.4-3.2h-3l-0.4,3.2H336.2z"/>
<path class="st0" d="M344.1,106.2h-1.9v-1.9h2.1l0.4-3.2h-2v-1.9h2.3l0.6-4.4h1.7l-0.5,4.4h2.9l0.6-4.4h1.7l-0.5,4.4h2v1.9h-2.2
	l-0.4,3.2h2.1v1.9h-2.4l-0.6,4.9h-1.8l0.6-4.9h-2.9l-0.6,4.9h-1.8L344.1,106.2z M349,104.3l0.4-3.2h-3l-0.4,3.2H349z"/>
<path class="st0" d="M356.9,106.2H355v-1.9h2.1l0.4-3.2h-2v-1.9h2.3l0.6-4.4h1.7l-0.5,4.4h2.9l0.6-4.4h1.7l-0.5,4.4h2v1.9H364
	l-0.4,3.2h2.1v1.9h-2.4l-0.6,4.9h-1.8l0.6-4.9h-2.9l-0.6,4.9h-1.8L356.9,106.2z M361.9,104.3l0.4-3.2h-3l-0.4,3.2H361.9z"/>
<path class="st0" d="M369.8,106.2h-1.9v-1.9h2.1l0.4-3.2h-2v-1.9h2.3l0.6-4.4h1.7l-0.5,4.4h2.9l0.6-4.4h1.7l-0.5,4.4h2v1.9h-2.2
	l-0.4,3.2h2.1v1.9h-2.4l-0.6,4.9h-1.8l0.6-4.9h-2.9l-0.6,4.9h-1.8L369.8,106.2z M374.7,104.3l0.4-3.2h-3l-0.4,3.2H374.7z"/>
<path class="st0" d="M382.7,106.2h-1.9v-1.9h2.1l0.4-3.2h-2v-1.9h2.3l0.6-4.4h1.7l-0.5,4.4h2.9l0.6-4.4h1.7l-0.5,4.4h2v1.9h-2.2
	l-0.4,3.2h2.1v1.9h-2.4l-0.6,4.9h-1.8l0.6-4.9h-2.9l-0.6,4.9h-1.8L382.7,106.2z M387.6,104.3l0.4-3.2h-3l-0.4,3.2H387.6z"/>
<path class="st0" d="M395.5,106.2h-1.9v-1.9h2.1l0.4-3.2h-2v-1.9h2.3l0.6-4.4h1.7l-0.5,4.4h2.9l0.6-4.4h1.7l-0.5,4.4h2v1.9h-2.2
	l-0.4,3.2h2.1v1.9h-2.4l-0.6,4.9h-1.8l0.6-4.9h-2.9l-0.6,4.9h-1.8L395.5,106.2z M400.4,104.3l0.4-3.2h-3l-0.4,3.2H400.4z"/>
<path class="st0" d="M408.4,106.2h-1.9v-1.9h2.1l0.4-3.2h-2v-1.9h2.3l0.6-4.4h1.7l-0.5,4.4h2.9l0.6-4.4h1.7l-0.5,4.4h2v1.9h-2.2
	l-0.4,3.2h2.1v1.9h-2.4l-0.6,4.9h-1.8l0.6-4.9h-2.9l-0.6,4.9h-1.8L408.4,106.2z M413.3,104.3l0.4-3.2h-3l-0.4,3.2H413.3z"/>
<path class="st0" d="M421.2,106.2h-1.9v-1.9h2.1l0.4-3.2h-2v-1.9h2.3l0.6-4.4h1.7l-0.5,4.4h2.9l0.6-4.4h1.7l-0.5,4.4h2v1.9h-2.2
	l-0.4,3.2h2.1v1.9h-2.4l-0.6,4.9h-1.8l0.6-4.9H423l-0.6,4.9h-1.8L421.2,106.2z M426.1,104.3l0.4-3.2h-3l-0.4,3.2H426.1z"/>
<path class="st0" d="M433.8,106.2h-1.9v-1.9h2.1l0.4-3.2h-2v-1.9h2.3l0.6-4.4h1.7l-0.5,4.4h2.9l0.6-4.4h1.7l-0.5,4.4h2v1.9h-2.2
	l-0.4,3.2h2.1v1.9h-2.4l-0.6,4.9h-1.8l0.6-4.9h-2.9l-0.6,4.9h-1.8L433.8,106.2z M438.7,104.3l0.4-3.2h-3l-0.4,3.2H438.7z"/>
<path class="st0" d="M446.7,106.2h-1.9v-1.9h2.1l0.4-3.2h-2v-1.9h2.3l0.6-4.4h1.7l-0.5,4.4h2.9l0.6-4.4h1.7l-0.5,4.4h2v1.9h-2.2
	l-0.4,3.2h2.1v1.9h-2.4l-0.6,4.9h-1.8l0.6-4.9h-2.9l-0.6,4.9h-1.8L446.7,106.2z M451.6,104.3l0.4-3.2h-3l-0.4,3.2H451.6z"/>
<path class="st0" d="M459.5,106.2h-1.9v-1.9h2.1l0.4-3.2h-2v-1.9h2.3l0.6-4.4h1.7l-0.5,4.4h2.9l0.6-4.4h1.7l-0.5,4.4h2v1.9h-2.2
	l-0.4,3.2h2.1v1.9H466l-0.6,4.9h-1.8l0.6-4.9h-2.9l-0.6,4.9h-1.8L459.5,106.2z M464.4,104.3l0.4-3.2h-3l-0.4,3.2H464.4z"/>
<path class="st0" d="M472.4,106.2h-1.9v-1.9h2.1l0.4-3.2h-2v-1.9h2.3l0.6-4.4h1.7l-0.5,4.4h2.9l0.6-4.4h1.7l-0.5,4.4h2v1.9h-2.2
	l-0.4,3.2h2.1v1.9h-2.4l-0.6,4.9h-1.8l0.6-4.9h-2.9l-0.6,4.9h-1.8L472.4,106.2z M477.3,104.3l0.4-3.2h-3l-0.4,3.2H477.3z"/>
<path class="st0" d="M485.2,106.2h-1.9v-1.9h2.1l0.4-3.2h-2v-1.9h2.3l0.6-4.4h1.7l-0.5,4.4h2.9l0.6-4.4h1.7l-0.5,4.4h2v1.9h-2.2
	l-0.4,3.2h2.1v1.9h-2.4l-0.6,4.9h-1.8l0.6-4.9H487l-0.6,4.9h-1.8L485.2,106.2z M490.1,104.3l0.4-3.2h-3l-0.4,3.2H490.1z"/>
<path class="st0" d="M498.1,106.2h-1.9v-1.9h2.1l0.4-3.2h-2v-1.9h2.3l0.6-4.4h1.7l-0.5,4.4h2.9l0.6-4.4h1.7l-0.5,4.4h2v1.9h-2.2
	l-0.4,3.2h2.1v1.9h-2.4l-0.6,4.9h-1.8l0.6-4.9h-2.9l-0.6,4.9h-1.8L498.1,106.2z M503,104.3l0.4-3.2h-3l-0.4,3.2H503z"/>
<path class="st0" d="M510.9,106.2H509v-1.9h2.1l0.4-3.2h-2v-1.9h2.3l0.6-4.4h1.7l-0.5,4.4h2.9l0.6-4.4h1.7l-0.5,4.4h2v1.9H518
	l-0.4,3.2h2.1v1.9h-2.4l-0.6,4.9H515l0.6-4.9h-2.9l-0.6,4.9h-1.8L510.9,106.2z M515.9,104.3l0.4-3.2h-3l-0.4,3.2H515.9z"/>
<path class="st0" d="M523.8,106.2h-1.9v-1.9h2.1l0.4-3.2h-2v-1.9h2.3l0.6-4.4h1.7l-0.5,4.4h2.9l0.6-4.4h1.7l-0.5,4.4h2v1.9h-2.2
	l-0.4,3.2h2.1v1.9h-2.4l-0.6,4.9h-1.8l0.6-4.9h-2.9l-0.6,4.9h-1.8L523.8,106.2z M528.7,104.3l0.4-3.2h-3l-0.4,3.2H528.7z"/>
<path class="st0" d="M536.6,106.2h-1.9v-1.9h2.1l0.4-3.2h-2v-1.9h2.3l0.6-4.4h1.7l-0.5,4.4h2.9l0.6-4.4h1.7l-0.5,4.4h2v1.9h-2.2
	l-0.4,3.2h2.1v1.9h-2.4l-0.6,4.9h-1.8l0.6-4.9h-2.9l-0.6,4.9H536L536.6,106.2z M541.6,104.3l0.4-3.2h-3l-0.4,3.2H541.6z"/>
<path class="st0" d="M549.5,106.2h-1.9v-1.9h2.1l0.4-3.2h-2v-1.9h2.3l0.6-4.4h1.7l-0.5,4.4h2.9l0.6-4.4h1.7l-0.5,4.4h2v1.9h-2.2
	l-0.4,3.2h2.1v1.9h-2.4l-0.6,4.9h-1.8l0.6-4.9h-2.9l-0.6,4.9h-1.8L549.5,106.2z M554.4,104.3l0.4-3.2h-3l-0.4,3.2H554.4z"/>
<path class="st0" d="M562.4,106.2h-1.9v-1.9h2.1l0.4-3.2h-2v-1.9h2.3l0.6-4.4h1.7l-0.5,4.4h2.9l0.6-4.4h1.7l-0.5,4.4h2v1.9h-2.2
	l-0.4,3.2h2.1v1.9h-2.4l-0.6,4.9h-1.8l0.6-4.9h-2.9l-0.6,4.9h-1.8L562.4,106.2z M567.3,104.3l0.4-3.2h-3l-0.4,3.2H567.3z"/>
<path class="st0" d="M575.2,106.2h-1.9v-1.9h2.1l0.4-3.2h-2v-1.9h2.3l0.6-4.4h1.7l-0.5,4.4h2.9l0.6-4.4h1.7l-0.5,4.4h2v1.9h-2.2
	l-0.4,3.2h2.1v1.9h-2.4l-0.6,4.9h-1.8l0.6-4.9H577l-0.6,4.9h-1.8L575.2,106.2z M580.1,104.3l0.4-3.2h-3l-0.4,3.2H580.1z"/>
<path class="st0" d="M588.1,106.2h-1.9v-1.9h2.1l0.4-3.2h-2v-1.9h2.3l0.6-4.4h1.7l-0.5,4.4h2.9l0.6-4.4h1.7l-0.5,4.4h2v1.9h-2.2
	l-0.4,3.2h2.1v1.9h-2.4l-0.6,4.9h-1.8l0.6-4.9h-2.9l-0.6,4.9h-1.8L588.1,106.2z M593,104.3l0.4-3.2h-3l-0.4,3.2H593z"/>
<path class="st0" d="M600.9,106.2H599v-1.9h2.1l0.4-3.2h-2v-1.9h2.3l0.6-4.4h1.7l-0.5,4.4h2.9l0.6-4.4h1.7l-0.5,4.4h2v1.9H608
	l-0.4,3.2h2.1v1.9h-2.4l-0.6,4.9H605l0.6-4.9h-2.9l-0.6,4.9h-1.8L600.9,106.2z M605.8,104.3l0.4-3.2h-3l-0.4,3.2H605.8z"/>
<path class="st0" d="M613.5,106.2h-1.9v-1.9h2.1l0.4-3.2h-2v-1.9h2.3l0.6-4.4h1.7l-0.5,4.4h2.9l0.6-4.4h1.7l-0.5,4.4h2v1.9h-2.2
	l-0.4,3.2h2.1v1.9H620l-0.6,4.9h-1.8l0.6-4.9h-2.9l-0.6,4.9h-1.8L613.5,106.2z M618.4,104.3l0.4-3.2h-3l-0.4,3.2H618.4z"/>
<path class="st0" d="M626.4,106.2h-1.9v-1.9h2.1l0.4-3.2h-2v-1.9h2.3l0.6-4.4h1.7l-0.5,4.4h2.9l0.6-4.4h1.7l-0.5,4.4h2v1.9h-2.2
	l-0.4,3.2h2.1v1.9h-2.4l-0.6,4.9h-1.8l0.6-4.9h-2.9l-0.6,4.9h-1.8L626.4,106.2z M631.3,104.3l0.4-3.2h-3l-0.4,3.2H631.3z"/>
<path class="st0" d="M639.2,106.2h-1.9v-1.9h2.1l0.4-3.2h-2v-1.9h2.3l0.6-4.4h1.7l-0.5,4.4h2.9l0.6-4.4h1.7l-0.5,4.4h2v1.9h-2.2
	l-0.4,3.2h2.1v1.9h-2.4l-0.6,4.9h-1.8l0.6-4.9H641l-0.6,4.9h-1.8L639.2,106.2z M644.1,104.3l0.4-3.2h-3l-0.4,3.2H644.1z"/>
<path class="st0" d="M652.1,106.2h-1.9v-1.9h2.1l0.4-3.2h-2v-1.9h2.3l0.6-4.4h1.7l-0.5,4.4h2.9l0.6-4.4h1.7l-0.5,4.4h2v1.9h-2.2
	l-0.4,3.2h2.1v1.9h-2.4l-0.6,4.9h-1.8l0.6-4.9h-2.9l-0.6,4.9h-1.8L652.1,106.2z M657,104.3l0.4-3.2h-3l-0.4,3.2H657z"/>
<path class="st0" d="M664.7,106.2h-1.9v-1.9h2.1l0.4-3.2h-2v-1.9h2.3l0.6-4.4h1.7l-0.5,4.4h2.9l0.6-4.4h1.7l-0.5,4.4h2v1.9h-2.2
	l-0.4,3.2h2.1v1.9h-2.4l-0.6,4.9h-1.8l0.6-4.9h-2.9l-0.6,4.9h-1.8L664.7,106.2z M669.6,104.3l0.4-3.2h-3l-0.4,3.2H669.6z"/>
<path class="st0" d="M677.4,106.2h-1.9v-1.9h2.1l0.4-3.2h-2v-1.9h2.3l0.6-4.4h1.7l-0.5,4.4h2.9l0.6-4.4h1.7l-0.5,4.4h2v1.9h-2.2
	l-0.4,3.2h2.1v1.9h-2.4l-0.6,4.9h-1.8l0.6-4.9h-2.9l-0.6,4.9h-1.8L677.4,106.2z M682.3,104.3l0.4-3.2h-3l-0.4,3.2H682.3z"/>
<path class="st0" d="M100.3,33.7h-1.9v-1.9h2.1l0.4-3.2h-2v-1.9h2.3l0.6-4.4h1.7l-0.5,4.4h2.9l0.6-4.4h1.7l-0.5,4.4h2v1.9h-2.2
	l-0.4,3.2h2.1v1.9h-2.4l-0.6,4.9h-1.8l0.6-4.9H102l-0.6,4.9h-1.8L100.3,33.7z M105.2,31.8l0.4-3.2h-3l-0.4,3.2H105.2z"/>
<path class="st0" d="M100.3,51.7h-1.9v-1.9h2.1l0.4-3.2h-2v-1.9h2.3l0.6-4.4h1.7l-0.5,4.4h2.9l0.6-4.4h1.7l-0.5,4.4h2v1.9h-2.2
	l-0.4,3.2h2.1v1.9h-2.4l-0.6,4.9h-1.8l0.6-4.9H102l-0.6,4.9h-1.8L100.3,51.7z M105.2,49.8l0.4-3.2h-3l-0.4,3.2H105.2z"/>
<path class="st0" d="M100.3,69.8h-1.9v-1.9h2.1l0.4-3.2h-2v-1.9h2.3l0.6-4.4h1.7l-0.5,4.4h2.9l0.6-4.4h1.7l-0.5,4.4h2v1.9h-2.2
	l-0.4,3.2h2.1v1.9h-2.4l-0.6,4.9h-1.8l0.6-4.9H102l-0.6,4.9h-1.8L100.3,69.8z M105.2,67.9l0.4-3.2h-3l-0.4,3.2H105.2z"/>
<path class="st0" d="M100.3,87.8h-1.9v-1.9h2.1l0.4-3.2h-2v-1.9h2.3l0.6-4.4h1.7l-0.5,4.4h2.9l0.6-4.4h1.7l-0.5,4.4h2v1.9h-2.2
	l-0.4,3.2h2.1v1.9h-2.4l-0.6,4.9h-1.8l0.6-4.9H102l-0.6,4.9h-1.8L100.3,87.8z M105.2,85.9l0.4-3.2h-3l-0.4,3.2H105.2z"/>
<path class="st0" d="M48.7,33.8h-1.9v-1.9h2.1l0.4-3.2h-2v-1.9h2.3l0.6-4.4h1.7l-0.5,4.4h2.9l0.6-4.4h1.7L56,26.8h2v1.9h-2.2
	l-0.4,3.2h2.1v1.9h-2.4l-0.6,4.9h-1.8l0.6-4.9h-2.9l-0.6,4.9h-1.8L48.7,33.8z M53.6,31.9l0.4-3.2h-3l-0.4,3.2H53.6z"/>
<path class="st0" d="M61.6,33.8h-1.9v-1.9h2.1l0.4-3.2h-2v-1.9h2.3l0.6-4.4h1.7l-0.5,4.4h2.9l0.6-4.4h1.7l-0.5,4.4h2v1.9h-2.2
	l-0.4,3.2h2.1v1.9H68l-0.6,4.9h-1.8l0.6-4.9h-2.9l-0.6,4.9H61L61.6,33.8z M66.5,31.9l0.4-3.2h-3l-0.4,3.2H66.5z"/>
<path class="st0" d="M74.4,33.8h-1.9v-1.9h2.1l0.4-3.2h-2v-1.9h2.3l0.6-4.4h1.7L77,26.8h2.9l0.6-4.4h1.7l-0.5,4.4h2v1.9h-2.2
	l-0.4,3.2h2.1v1.9h-2.4l-0.6,4.9h-1.8l0.6-4.9h-2.9l-0.6,4.9h-1.8L74.4,33.8z M79.3,31.9l0.4-3.2h-3l-0.4,3.2H79.3z"/>
<path class="st0" d="M87.3,33.8h-1.9v-1.9h2.1l0.4-3.2h-2v-1.9h2.3l0.6-4.4h1.7l-0.5,4.4h2.9l0.6-4.4h1.7l-0.5,4.4h2v1.9h-2.2
	l-0.4,3.2h2.1v1.9h-2.4l-0.6,4.9h-1.8l0.6-4.9H89l-0.6,4.9h-1.8L87.3,33.8z M92.2,31.9l0.4-3.2h-3l-0.4,3.2H92.2z"/>
<path class="st0" d="M36.1,33.8h-1.9v-1.9h2.1l0.4-3.2h-2v-1.9h2.3l0.6-4.4h1.7l-0.5,4.4h2.9l0.6-4.4h1.7l-0.5,4.4h2v1.9h-2.2
	l-0.4,3.2h2.1v1.9h-2.4L42,38.7h-1.8l0.6-4.9h-2.9l-0.6,4.9h-1.8L36.1,33.8z M41,31.9l0.4-3.2h-3L38,31.9H41z"/>
<path class="st0" d="M36.1,51.9h-1.9V50h2.1l0.4-3.2h-2v-1.9h2.3l0.6-4.4h1.7l-0.5,4.4h2.9l0.6-4.4h1.7l-0.5,4.4h2v1.9h-2.2L42.8,50
	h2.1v1.9h-2.4L42,56.7h-1.8l0.6-4.9h-2.9l-0.6,4.9h-1.8L36.1,51.9z M41,50l0.4-3.2h-3L38,50H41z"/>
<path class="st1" d="M153,19.4h11.3l31.6,73.3H181l-6.8-16.8h-31.8l-6.6,16.8h-14.6L153,19.4z M169.6,64.7l-11.3-29.8l-11.5,29.8
	H169.6z"/>
<path class="st1" d="M202.5,41.5h11.8v8h0.2c1.1-2.5,3-4.7,5.7-6.6c2.7-1.9,6-2.8,9.7-2.8c3.2,0,6,0.6,8.3,1.7
	c2.3,1.1,4.2,2.6,5.7,4.5c1.5,1.9,2.6,4,3.3,6.4c0.7,2.4,1,4.9,1,7.5v32.5h-12.4v-29c0-1.4-0.1-3-0.3-4.6c-0.2-1.6-0.7-3-1.3-4.3
	c-0.7-1.3-1.6-2.3-2.8-3.2c-1.2-0.8-2.8-1.2-4.8-1.2c-2,0-3.7,0.4-5.2,1.2c-1.4,0.8-2.6,1.8-3.6,3.1c-0.9,1.2-1.6,2.7-2.1,4.3
	c-0.5,1.6-0.7,3.3-0.7,4.9v28.7h-12.4V41.5z"/>
<path class="st1" d="M296.7,55.3c-1-1.4-2.4-2.5-4.3-3.5c-1.9-0.9-3.9-1.4-5.9-1.4c-2.3,0-4.3,0.5-6,1.4c-1.7,0.9-3.2,2.2-4.3,3.7
	c-1.1,1.5-2,3.2-2.5,5.1c-0.6,1.9-0.8,3.8-0.8,5.7c0,1.9,0.3,3.8,0.9,5.7c0.6,1.9,1.5,3.6,2.6,5.1c1.2,1.5,2.6,2.7,4.4,3.7
	s3.8,1.4,6.2,1.4c1.9,0,3.9-0.4,5.8-1.1c1.9-0.8,3.5-1.9,4.7-3.3l7.8,7.9c-2.1,2.2-4.7,3.9-7.9,5.1s-6.7,1.8-10.4,1.8
	c-3.7,0-7.1-0.6-10.4-1.8c-3.3-1.2-6.1-2.9-8.6-5.2c-2.5-2.3-4.4-5-5.8-8.3c-1.4-3.2-2.1-6.9-2.1-11.1c0-4,0.7-7.6,2.1-10.9
	c1.4-3.2,3.3-6,5.7-8.3c2.4-2.3,5.2-4,8.4-5.3c3.2-1.2,6.6-1.9,10.3-1.9c3.7,0,7.2,0.7,10.6,2.1c3.4,1.4,6.1,3.3,8.1,5.7L296.7,55.3
	z"/>
<path class="st1" d="M340.9,40.1c3.2,0,6,0.6,8.3,1.7c2.3,1.1,4.2,2.6,5.7,4.5c1.5,1.9,2.6,4,3.3,6.4c0.7,2.4,1,4.9,1,7.5v32.5
	h-12.4V63.9c0-1.4-0.1-3-0.3-4.5s-0.6-3-1.3-4.2c-0.7-1.3-1.6-2.3-2.8-3.2c-1.2-0.8-2.8-1.2-4.8-1.2c-2,0-3.7,0.4-5.2,1.1
	c-1.4,0.8-2.7,1.8-3.6,3.1c-1,1.3-1.7,2.7-2.2,4.3c-0.5,1.6-0.7,3.2-0.7,4.9v28.5h-12.4V13h12.4v35.5h0.2c0.5-1,1.2-2.1,2.1-3.1
	c0.9-1,2-1.9,3.3-2.7c1.2-0.8,2.7-1.4,4.2-1.9C337.3,40.3,339.1,40.1,340.9,40.1z"/>
<path class="st1" d="M370.8,66.2c0-3.9,0.7-7.5,2.1-10.7c1.4-3.2,3.3-6,5.7-8.2c2.4-2.3,5.3-4,8.6-5.3s6.8-1.9,10.6-1.9
	s7.2,0.6,10.6,1.9s6.2,3,8.6,5.3c2.4,2.3,4.3,5,5.7,8.2c1.4,3.2,2.1,6.8,2.1,10.7c0,3.9-0.7,7.5-2.1,10.8c-1.4,3.2-3.3,6-5.7,8.3
	c-2.4,2.3-5.3,4.1-8.6,5.4s-6.8,2-10.6,2s-7.2-0.7-10.6-2s-6.2-3.1-8.6-5.4c-2.4-2.3-4.3-5.1-5.7-8.3
	C371.5,73.7,370.8,70.1,370.8,66.2z M383.5,66.2c0,1.9,0.3,3.9,0.9,5.8c0.6,1.9,1.5,3.7,2.6,5.2c1.2,1.5,2.7,2.8,4.5,3.7
	c1.8,1,3.9,1.4,6.4,1.4s4.6-0.5,6.4-1.4c1.8-1,3.3-2.2,4.5-3.7c1.2-1.5,2.1-3.2,2.6-5.2c0.6-1.9,0.9-3.9,0.9-5.8
	c0-1.9-0.3-3.8-0.9-5.7c-0.6-1.9-1.5-3.6-2.6-5.1c-1.2-1.5-2.7-2.7-4.5-3.7c-1.8-0.9-3.9-1.4-6.4-1.4s-4.6,0.5-6.4,1.4
	c-1.8,0.9-3.3,2.2-4.5,3.7c-1.2,1.5-2.1,3.2-2.6,5.1C383.8,62.3,383.5,64.3,383.5,66.2z"/>
<path class="st1" d="M436.9,41.5h11.9v8.3h0.2c1.4-2.9,3.3-5.2,5.8-7c2.5-1.8,5.4-2.7,8.7-2.7c0.5,0,1,0,1.6,0.1
	c0.6,0,1,0.1,1.4,0.3v11.4c-0.8-0.2-1.5-0.3-2.1-0.4c-0.6-0.1-1.2-0.1-1.7-0.1c-2.8,0-5.1,0.5-6.8,1.6c-1.7,1-3.1,2.3-4,3.7
	c-1,1.4-1.6,2.9-2,4.5c-0.3,1.5-0.5,2.7-0.5,3.6v28h-12.4V41.5z"/>
<path class="st0" d="M483.5,17.9h13v29.6h34.3V17.9h13v74.7h-13V58.7h-34.3v33.9h-13V17.9z"/>
<path class="st0" d="M604.7,92.8h-11.8v-9.4h-0.2c-1.1,2.5-3,4.7-5.7,6.6c-2.7,1.9-6,2.8-9.7,2.8c-3.2,0-6-0.6-8.3-1.7
	c-2.3-1.1-4.2-2.6-5.7-4.5c-1.5-1.9-2.6-4-3.3-6.4c-0.7-2.4-1-4.9-1-7.5V41.6h12.4v27.5c0,1.4,0.1,3,0.3,4.6c0.2,1.6,0.7,3,1.3,4.3
	c0.7,1.3,1.6,2.3,2.8,3.2c1.2,0.8,2.8,1.2,4.8,1.2c1.9,0,3.6-0.4,5.1-1.2c1.5-0.8,2.7-1.8,3.6-3.1s1.6-2.7,2.1-4.3
	c0.5-1.6,0.7-3.3,0.7-4.9V41.6h12.4V92.8z"/>
<path class="st0" d="M632.2,13v34.9h0.3c0.6-0.8,1.4-1.7,2.4-2.6c1-0.9,2.1-1.7,3.5-2.5c1.3-0.8,2.9-1.4,4.7-1.9
	c1.8-0.5,3.8-0.8,6.1-0.8c3.5,0,6.8,0.7,9.7,2c3,1.3,5.5,3.2,7.7,5.5c2.1,2.3,3.8,5.1,5,8.3c1.2,3.2,1.8,6.6,1.8,10.2
	c0,3.7-0.6,7.1-1.7,10.3s-2.8,6-4.9,8.4c-2.1,2.4-4.7,4.3-7.7,5.7c-3,1.4-6.4,2.1-10.2,2.1c-3.5,0-6.8-0.8-9.9-2.3
	c-3.1-1.5-5.5-3.7-7.2-6.6h-0.2v8.9h-11.8V13H632.2z M660.7,66.2c0-1.9-0.3-3.8-0.9-5.7c-0.6-1.9-1.5-3.6-2.6-5.1
	c-1.2-1.5-2.7-2.7-4.5-3.7c-1.8-0.9-3.9-1.4-6.3-1.4c-2.3,0-4.3,0.5-6.1,1.4c-1.8,1-3.3,2.2-4.6,3.7c-1.3,1.5-2.2,3.2-2.9,5.2
	c-0.7,1.9-1,3.9-1,5.8c0,1.9,0.3,3.8,1,5.7c0.7,1.9,1.6,3.6,2.9,5.1c1.3,1.5,2.8,2.7,4.6,3.7c1.8,0.9,3.8,1.4,6.1,1.4
	c2.4,0,4.5-0.5,6.3-1.4c1.8-1,3.3-2.2,4.5-3.7c1.2-1.5,2.1-3.2,2.6-5.2C660.4,70.1,660.7,68.1,660.7,66.2z"/>
</svg>
